<svg xmlns="http://www.w3.org/2000/svg" viewBox="0 0 151.73 222.6"><defs><style>.cls-1,.cls-2{fill:#fff;stroke:#fff;}.cls-1{stroke-linecap:round;stroke-linejoin:round;stroke-width:10px;}.cls-2{stroke-miterlimit:10;}</style></defs><title>Asset 1logo</title><g id="Layer_2" data-name="Layer 2"><g id="Layer_3" data-name="Layer 3"><path class="cls-1" d="M75.87,5A70.87,70.87,0,0,0,5,75.87C5,115,75.87,217.6,75.87,217.6S146.73,115,146.73,75.87A70.87,70.87,0,0,0,75.87,5Zm0,115.16a44.3,44.3,0,1,1,44.29-44.29A44.29,44.29,0,0,1,75.87,120.16Z"/><path class="cls-2" d="M75.06,76c-1.31,0-1.42-.18-1.27-1.38.18-1.45.28-2.92.38-4.39.07-1.25.16-2.52.11-3.77-.1-2.23-.27-4.47-.48-6.7q-.28-3-.74-6c-.27-1.75-.64-3.49-1-5.23s-.78-3.17-1.14-4.76c-.09-.38-.2-.82.23-1.11s.8-.14,1.22.13C74.12,43.84,76,44.85,77.7,46c1.58,1.09,3.06,2.33,4.54,3.56A29.07,29.07,0,0,1,85,52.13a48.63,48.63,0,0,1,3.54,4,68.33,68.33,0,0,1,4.08,5.92,52.79,52.79,0,0,1,2.93,5.82,49.06,49.06,0,0,1,1.66,4.73c.23.72.19,1.28-.93,1.36-2,.16-4,.41-5.94.6-1.14.1-2.29.15-3.43.25-1.55.15-3.08.33-4.62.48l-2.71.25Z"/><path class="cls-2" d="M44.93,82.8l.09-.11a1.75,1.75,0,0,1,1.09-.39c1.22-.14,2.43-.23,3.63-.35,1.54-.14,3.08-.32,4.62-.47,1-.1,2-.17,3-.26l5.1-.48c1.09-.09,2.17-.15,3.26-.25,1.6-.15,3.2-.33,4.8-.48,1.06-.1,2.13-.16,3.19-.26l4.74-.47c1-.1,2-.17,3.07-.26,1.68-.16,3.36-.33,5-.48,1.06-.1,2.13-.16,3.19-.26l4.86-.47c1-.1,2-.17,3-.26l5.11-.48c1.12-.1,2.32-.37,3.42-.39a1.33,1.33,0,0,1,1.16.53,1.8,1.8,0,0,1,0,1.54,11.86,11.86,0,0,1-4.66,5.78,34.45,34.45,0,0,1-7.63,4,13.06,13.06,0,0,1-2.53.65,30.64,30.64,0,0,0-3.35.39,33.71,33.71,0,0,0-4,1.5,10.45,10.45,0,0,1-7.92.17c-1.69-.64-3.24-1.69-5.09-1.85a24.74,24.74,0,0,0-4.12-.16A14.5,14.5,0,0,0,62.66,91a7.69,7.69,0,0,1-6.16.48,30.68,30.68,0,0,1-8.14-4,11.49,11.49,0,0,1-3.44-3.36A1.25,1.25,0,0,1,44.93,82.8Z"/><path class="cls-2" d="M69.71,66.53c.06,1,.08,2,.05,3-.06,1.74-.15,3.48-.24,5.22a7.08,7.08,0,0,1-.13.89c-.16.78-.36.9-1.19,1-1.54.14-3.07.33-4.61.47-1.11.11-2.22.16-3.32.26-1.58.15-3.16.29-4.74.49-1.21.15-1.68-.35-1.4-1.55A38.21,38.21,0,0,1,57.8,66.6a32.14,32.14,0,0,1,4.07-5.93c1.08-1.21,2.18-2.41,3.32-3.55a15.63,15.63,0,0,1,2.13-1.77c.66-.45,1.26-.06,1.35.72.14,1.26.33,2.5.47,3.76.1.84.19,1.68.25,2.52C69.5,63.74,69.63,65.13,69.71,66.53Z"/><path class="cls-2" d="M46.78,95.88V91.74a26.78,26.78,0,0,1,3.43.43,18.08,18.08,0,0,1,3.45,1.33,10.15,10.15,0,0,0,8.71.19c1.42-.58,2.86-1.1,4.31-1.6a5.19,5.19,0,0,1,1.48-.21c.88,0,1.76,0,2.64,0a11.83,11.83,0,0,1,4.52,1.07,26.75,26.75,0,0,0,3.74,1.4,9,9,0,0,0,6.11-.63,15.73,15.73,0,0,1,5.29-1.8,14.69,14.69,0,0,1,7.16.8c1.23.52,2.44,1.1,3.71,1.51a18.73,18.73,0,0,0,2.68.45v4C100,99,96.62,96,92.62,96S85,98.94,81,99c-2.62,0-5-1.26-7.48-2.16a9.9,9.9,0,0,0-6.16-.58c-2.17.66-4,1.82-6.31,2.18a17.21,17.21,0,0,1-6.63-.24c-2.27-.53-4.24-1.62-6.53-2.11C47.52,96,47.16,95.93,46.78,95.88Z"/></g></g></svg>