<svg id="Layer_3" data-name="Layer 3" xmlns="http://www.w3.org/2000/svg" viewBox="0 0 151.73 222.6"><defs><style>.cls-1,.cls-2{fill:#fff;stroke:#fff;}.cls-1{stroke-linecap:round;stroke-linejoin:round;stroke-width:10px;}.cls-2{stroke-miterlimit:10;}</style></defs><title>logo2</title><path class="cls-1" d="M141.73,35.43A70.86,70.86,0,0,0,70.87,106.3c0,39.14,70.86,141.73,70.86,141.73S212.6,145.44,212.6,106.3A70.87,70.87,0,0,0,141.73,35.43Zm0,115.16A44.29,44.29,0,1,1,186,106.3,44.29,44.29,0,0,1,141.73,150.59Z" transform="translate(-65.87 -30.43)"/><path class="cls-2" d="M140.93,106.39c-1.31,0-1.42-.18-1.28-1.37.18-1.46.29-2.93.38-4.4a33.84,33.84,0,0,0,.11-3.77q-.15-3.34-.48-6.69c-.19-2-.43-4-.74-6-.27-1.76-.63-3.5-1-5.23s-.78-3.18-1.14-4.77c-.08-.37-.19-.82.24-1.11s.79-.14,1.21.13c1.77,1.12,3.62,2.13,5.34,3.32s3.06,2.33,4.55,3.55a30.32,30.32,0,0,1,2.77,2.54,47,47,0,0,1,3.55,4,70.63,70.63,0,0,1,4.08,5.92,53.83,53.83,0,0,1,2.93,5.83,47.23,47.23,0,0,1,1.66,4.73c.23.71.19,1.27-.93,1.36-2,.15-4,.4-5.94.59-1.14.11-2.29.15-3.44.26-1.54.14-3.08.32-4.62.48q-1.35.14-2.7.24Z" transform="translate(-65.87 -30.43)"/><path class="cls-2" d="M110.79,113.23a.52.52,0,0,1,.1-.11,1.81,1.81,0,0,1,1.09-.39c1.21-.14,2.42-.23,3.63-.34,1.54-.15,3.07-.33,4.61-.48,1-.1,2-.16,3-.25l5.11-.48c1.08-.1,2.17-.16,3.25-.26l4.8-.48c1.06-.1,2.13-.16,3.2-.26,1.58-.14,3.15-.32,4.73-.47,1-.1,2.05-.16,3.07-.26,1.69-.15,3.37-.32,5.05-.48l3.19-.25,4.86-.48c1-.09,2-.16,3-.26l5.1-.48c1.12-.1,2.33-.36,3.43-.39a1.34,1.34,0,0,1,1.16.53,1.84,1.84,0,0,1,0,1.54,11.93,11.93,0,0,1-4.67,5.78,33.22,33.22,0,0,1-7.63,4,12.05,12.05,0,0,1-2.53.65,33.11,33.11,0,0,0-3.34.39,35.75,35.75,0,0,0-4,1.5,10.38,10.38,0,0,1-7.91.17c-1.69-.64-3.24-1.68-5.1-1.85a25.77,25.77,0,0,0-4.12-.16,14.46,14.46,0,0,0-5.43,1.73,7.72,7.72,0,0,1-6.17.48,31,31,0,0,1-8.14-4,11.45,11.45,0,0,1-3.43-3.36A1.25,1.25,0,0,1,110.79,113.23Z" transform="translate(-65.87 -30.43)"/><path class="cls-2" d="M135.58,97c0,1,.08,2,0,3-.06,1.74-.16,3.48-.25,5.22a5.31,5.31,0,0,1-.13.89c-.16.78-.35.9-1.18,1-1.54.14-3.08.33-4.62.48-1.1.1-2.21.15-3.31.25-1.59.15-3.17.29-4.74.49-1.21.16-1.69-.35-1.4-1.55A37.84,37.84,0,0,1,123.67,97a32,32,0,0,1,4.07-5.93c1.07-1.21,2.17-2.4,3.32-3.55a15,15,0,0,1,2.13-1.76c.65-.45,1.26-.07,1.35.71.14,1.26.32,2.51.47,3.76.1.84.19,1.68.25,2.52C135.36,94.17,135.5,95.57,135.58,97Z" transform="translate(-65.87 -30.43)"/><path class="cls-2" d="M112.65,126.31v-4.14a27,27,0,0,1,3.43.43,19,19,0,0,1,3.45,1.33,10.15,10.15,0,0,0,8.71.2c1.41-.59,2.85-1.11,4.3-1.6a5,5,0,0,1,1.48-.21c.88,0,1.76,0,2.64,0a12,12,0,0,1,4.53,1.06,27.11,27.11,0,0,0,3.73,1.4,8.91,8.91,0,0,0,6.11-.63,15.78,15.78,0,0,1,5.3-1.8,14.59,14.59,0,0,1,7.16.81c1.22.52,2.44,1.09,3.7,1.5a19.11,19.11,0,0,0,2.69.45v4c-4.07.28-7.39-2.67-11.39-2.75s-7.62,3-11.66,3c-2.61,0-5-1.26-7.48-2.15a9.87,9.87,0,0,0-6.15-.59c-2.17.66-4,1.82-6.32,2.19a17.56,17.56,0,0,1-6.62-.24c-2.27-.53-4.25-1.63-6.53-2.12C113.38,126.4,113,126.37,112.65,126.31Z" transform="translate(-65.87 -30.43)"/></svg>